HIERARCHY
ROOT Hips
{
  OFFSET 2.26061 22.2878 23.7974
  CHANNELS 6 Xposition Yposition Zposition Zrotation Xrotation Yrotation
  JOINT LeftUpLeg
  {
    OFFSET 8.64259 1.95398 -2.38835
    CHANNELS 3 Zrotation Xrotation Yrotation
    JOINT LeftLeg
    {
      OFFSET 43.7702 0 0
      CHANNELS 3 Zrotation Xrotation Yrotation
      JOINT LeftFoot
      {
        OFFSET 40.6238 0 0
        CHANNELS 3 Zrotation Xrotation Yrotation
        JOINT LeftToeBase
        {
          OFFSET 12.7242 0 0
          CHANNELS 3 Zrotation Xrotation Yrotation
          End Site
          {
            OFFSET 0 0 0
          }
        }
      }
    }
  }
  JOINT RightUpLeg
  {
    OFFSET -8.2249 1.95398 -2.59336
    CHANNELS 3 Zrotation Xrotation Yrotation
    JOINT RightLeg
    {
      OFFSET 43.5653 0 0
      CHANNELS 3 Zrotation Xrotation Yrotation
      JOINT RightFoot
      {
        OFFSET 40.6238 0 0
        CHANNELS 3 Zrotation Xrotation Yrotation
        JOINT RightToeBase
        {
          OFFSET 12.7242 0 0
          CHANNELS 3 Zrotation Xrotation Yrotation
          End Site
          {
            OFFSET 0 0 0
          }
        }
      }
    }
  }
  JOINT Spine
  {
    OFFSET 0.165834 0.87714 6.61349
    CHANNELS 3 Zrotation Xrotation Yrotation
    JOINT Spine1
    {
      OFFSET 7.38963 1.71661e-005 0
      CHANNELS 3 Zrotation Xrotation Yrotation
      JOINT Spine2
      {
        OFFSET 11.9445 1.14441e-005 0
        CHANNELS 3 Zrotation Xrotation Yrotation
        JOINT Spine3
        {
          OFFSET 14.7254 4.19617e-005 0
          CHANNELS 3 Zrotation Xrotation Yrotation
          JOINT Spine4
          {
            OFFSET 10.9679 0 0
            CHANNELS 3 Zrotation Xrotation Yrotation
            JOINT RightShoulder
            {
              OFFSET 2.46616 -1.6653 3.69651
              CHANNELS 3 Zrotation Xrotation Yrotation
              JOINT RightArm
              {
                OFFSET 13.0012 0 0
                CHANNELS 3 Zrotation Xrotation Yrotation
                JOINT RightForeArm
                {
                  OFFSET 28.7848 1.52588e-005 0
                  CHANNELS 3 Zrotation Xrotation Yrotation
                  JOINT RightHand
                  {
                    OFFSET 26.5688 1.52588e-005 0
                    CHANNELS 3 Zrotation Xrotation Yrotation
                    End Site
                    {
                      OFFSET 0 0 0
                    }
                  }
                }
              }
            }
            JOINT LeftShoulder
            {
              OFFSET 2.38034 -1.29275 -3.7523
              CHANNELS 3 Zrotation Xrotation Yrotation
              JOINT LeftArm
              {
                OFFSET 16.3182 6.10351e-005 0
                CHANNELS 3 Zrotation Xrotation Yrotation
                JOINT LeftForeArm
                {
                  OFFSET 27.0901 0 0
                  CHANNELS 3 Zrotation Xrotation Yrotation
                  JOINT LeftHand
                  {
                    OFFSET 24.5451 1.52588e-005 0
                    CHANNELS 3 Zrotation Xrotation Yrotation
                    End Site
                    {
                      OFFSET 0 0 0
                    }
                  }
                }
              }
            }
            JOINT Neck
            {
              OFFSET 5.0226 -0.0266342 0
              CHANNELS 3 Zrotation Xrotation Yrotation
              JOINT Head
              {
                OFFSET 6.69363 2.86102e-005 0
                CHANNELS 3 Zrotation Xrotation Yrotation
                End Site
                {
                  OFFSET 0 0 0
                }
              }
            }
          }
        }
      }
    }
  }
}
MOTION
Frames:	14
Frame Time:	0.0416667
53.3794 89.8056 10.7592 28.7408 -78.6412 32.8748 -163.096 52.4478 85.8992 -39.4481 8.92303 -7.00054 56.2491 -2.57878 1.02897 41.5416 11.4943 16.7446 173.015 10.2431 76.888 -35.8412 -13.0728 -9.53732 52.2081 0.81415 0.94351 58.308 -0.747317 -11.2621 1.07502 8.35009 -90.1051 10.1782 2.09417 -0.385891 -1.49108 2.07515 -0.477726 -24.0397 2.11328 0.261628 -4.02707 2.11327 0.26162 95.7105 -46.8806 -92.4304 23.4628 -10.9107 -0.89475 -21.3791 -1.90483 -93.8132 -38.0451 -1.36087 -0.0764689 -99.6034 -51.7568 65.2064 -48.9769 20.0189 43.0289 10.1979 8.18483 -60.0203 23.5885 2.08999 5.08094 0.421619 7.29358 -3.62803 18.2304 9.90765 11.8711 
57.7106 91.4783 18.6916 38.2406 -76.8328 44.4813 -167.227 50.4301 88.9164 -26.5372 13.6585 -6.29304 49.8532 -7.4031 -0.86022 41.0429 10.8214 15.1135 171.085 3.3399 77.2909 -28.4309 -13.298 -9.65788 40.2922 5.20951 5.29395 44.2934 0.103047 -11.4084 1.32682 8.09951 -90.2398 10.6849 2.53196 -0.706414 -0.98386 2.49842 -0.817233 -23.5389 2.62712 0.087715 -3.52622 2.62714 0.0877248 95.8386 -46.5755 -92.2649 22.8742 -11.1287 2.76679 -20.0411 -0.520029 -95.6538 -38.4865 -1.01686 -1.21311 -97.4449 -50.1905 67.7831 -51.4307 16.8393 46.8198 8.81854 5.47316 -62.1581 23.7757 1.62661 2.99774 -2.11322 5.48491 -2.59853 19.1417 7.45441 8.82086 
61.7826 92.9299 26.4065 42.5304 -75.1615 51.8967 -169.258 49.7163 91.6346 -21.0084 14.1351 -5.58872 48.2082 -8.7189 -1.18562 38.7313 8.15902 7.97393 172.915 -1.41323 80.7698 -27.5687 -11.6169 -10.6317 38.2397 5.80901 6.08761 29.0396 0.811823 -13.1584 1.61917 7.77854 -90.3943 11.334 3.03831 -1.08857 -0.333998 2.98745 -1.22134 -22.8975 3.22486 -0.124219 -2.88486 3.22486 -0.124218 95.6276 -46.6279 -92.5987 22.4304 -11.3927 7.17654 -19.7302 -1.08571 -95.7359 -39.5471 -1.54098 0.130494 -95.9553 -48.6642 69.4824 -51.7006 13.3613 49.5929 8.90924 3.66686 -64.7388 23.0915 1.3013 1.78646 -4.50767 4.09199 -2.48569 19.7728 5.61018 6.60688 
65.317 93.3667 33.5727 44.2878 -73.7757 55.5248 -168.54 50.6111 92.2758 -23.8543 9.41676 -6.02274 49.4076 -8.35043 -1.51415 36.078 5.76532 9.94856 175.329 -1.89985 83.7286 -34.5849 -5.89851 -9.55146 42.0784 3.78268 3.84198 29.6025 0.772702 -12.792 1.83177 7.5609 -90.3378 11.7725 3.48441 -1.04191 0.105675 3.43519 -1.19441 -22.467 3.63623 0.054832 -2.45439 3.63625 0.0548279 95.6129 -46.634 -92.6215 22.9872 -12.1335 10.3797 -18.6838 -2.12818 -93.8036 -39.9104 -1.62095 0.276162 -94.8548 -48.5344 71.0856 -49.4495 10.8418 49.549 8.23107 2.16313 -66.3488 23.2078 1.21913 1.39448 -3.92675 2.93587 -2.87835 19.1075 4.14196 4.95445 
68.8136 93.0523 40.6126 50.4969 -70.6275 62.39 -167.97 50.2025 90.3311 -28.8247 6.87135 -5.89004 48.6845 -8.67644 -3.06273 33.3985 3.18972 11.513 176.453 -0.00350813 86.0103 -46.3534 -3.35937 -7.62099 41.4971 3.51905 3.60816 30.1678 0.672382 -11.6605 1.71629 7.45663 -90.0862 11.9727 3.37186 -0.537172 0.305896 3.34496 -0.685218 -22.2639 3.37725 0.50223 -2.25125 3.37723 0.502223 95.717 -48.502 -92.2081 23.0471 -12.577 12.5281 -17.8462 -3.65502 -90.1115 -35.8116 -1.58991 0.639461 -94.1757 -48.066 71.9592 -45.6484 8.87378 47.1099 6.50264 0.902542 -66.7033 24.0356 1.40978 2.01076 -2.65034 1.90499 -4.1024 18.2167 2.85874 3.07715 
71.9345 92.7341 47.6112 58.7703 -67.804 69.7932 -167.571 46.5022 87.9797 -33.1399 12.9754 -6.003 50.7689 -6.75283 -0.479085 29.5183 0.0977565 5.74517 176.848 2.38172 87.7187 -59.9752 -2.94278 -5.85267 38.4812 4.15348 4.3871 28.5773 0.61465 -9.39421 1.36256 7.57406 -89.9458 11.7318 2.73559 -0.17886 0.0637672 2.72506 -0.299189 -22.4938 2.66277 0.652165 -2.48117 2.66277 0.65216 94.5494 -47.6292 -94.1795 24.0862 -13.0388 15.1541 -15.9483 -6.76508 -84.1252 -31.8492 -1.36992 0.402381 -94.9489 -51.8965 71.9338 -39.1864 7.93584 42.966 4.50908 -0.175553 -66.3641 25.6976 1.60686 2.41505 -2.79678 1.48184 -1.28427 18.3298 1.52936 -0.232919 
74.9364 92.1544 54.387 65.6753 -65.3207 74.8509 -167.603 41.8569 85.7518 -38.8426 16.1633 -5.97277 58.7202 -0.0901978 3.57461 28.8696 -0.19344 2.61104 176.276 6.57861 88.2891 -73.9253 -1.73271 -3.98106 35.6577 4.24486 4.65631 30.0282 0.488095 -7.93954 0.997518 7.74983 -89.6267 11.3695 2.15893 0.526182 -0.299727 2.18001 0.430617 -22.8456 1.90096 1.1509 -2.83297 1.90096 1.1509 93.6734 -48.2936 -95.4585 24.4746 -14.1067 17.2236 -14.0308 -9.81831 -79.0069 -28.1796 -1.61508 1.92975 -95.06 -54.4333 72.4705 -33.2006 6.17496 37.9797 3.08177 -1.29397 -66.6956 25.3136 1.55547 2.30805 -2.78723 1.42943 -0.446407 18.1269 0.991082 -2.34311 
77.9315 91.1308 60.9606 68.4784 -64.3358 76.0945 -166.738 38.4362 84.286 -44.6906 16.8317 -6.34794 64.9251 5.9043 7.026 31.3235 1.82583 2.74811 175.97 13.8192 88.7068 -87.9424 2.22816 -2.708 35.3714 2.88062 3.30564 31.0273 0.486219 -8.36307 0.861186 7.90801 -89.2064 11.0442 2.08231 1.37902 -0.625716 2.14098 1.28601 -23.1635 1.57165 1.94106 -3.15082 1.57166 1.94104 93.9372 -50.3941 -94.7023 24.2274 -15.56 18.1648 -11.8387 -12.3928 -74.1399 -23.3715 -1.4123 2.06918 -97.0237 -55.9203 70.1594 -27.3725 4.11722 33.0083 3.04375 -1.57931 -68.7227 27.3365 1.96139 3.35545 -1.44058 1.32083 -2.9628 17.9788 1.20585 -2.05902 
80.7467 90.255 66.9406 69.3357 -63.3337 76.393 -165.624 35.4712 83.3499 -48.3973 16.3538 -6.59234 66.9532 9.14224 11.3486 37.2232 6.64523 0.417833 175.427 23.9144 90.5747 -100.471 5.55457 -2.0596 35.4095 1.17538 1.61497 32.4621 0.514659 -10.1924 0.654925 8.08014 -88.9454 10.6943 1.79001 1.93273 -0.976768 1.87334 1.85209 -23.5049 1.12657 2.38114 -3.49225 1.1266 2.38116 93.2561 -51.2121 -95.6102 24.8963 -15.9514 19.1586 -11.7088 -15.0142 -69.9743 -18.3774 -1.13714 1.92972 -99.0831 -57.0725 67.6939 -22.154 2.309 26.209 2.58691 -1.76866 -70.6995 29.9143 2.28014 3.76157 1.63424 1.39699 -3.98042 16.8427 1.43409 -2.43508 
83.9381 89.65 72.591 70.9316 -59.2194 77.9955 -167.399 31.5079 83.1234 -50.0123 15.8568 -5.38955 70.9951 12.8568 10.9294 38.9364 7.99295 0.527968 171.448 34.9364 93.3034 -108.851 7.75217 -1.87769 34.173 -0.0455935 0.434019 33.7868 0.474778 -11.4961 0.189637 8.18924 -88.9258 10.4842 0.870837 2.0582 -1.18806 0.960543 2.01789 -23.7105 0.212156 2.22468 -3.69785 0.212155 2.22467 93.291 -51.8772 -95.446 25.0871 -17.3875 20.9509 -10.7332 -17.8777 -66.3837 -16.5109 -1.03485 1.82751 -100.878 -55.5705 64.7533 -19.6741 1.30668 19.2847 5.92976 -0.405725 -72.903 33.1056 3.06883 5.50471 4.06969 1.25455 -4.37854 14.9439 1.49908 -2.27995 
87.8624 89.7303 78.6181 69.2981 -55.9997 77.5375 -169.511 27.5642 84.0579 -48.7069 19.0277 -4.33557 71.6245 14.1311 13.2128 41.3472 9.94606 1.2916 167.757 45.3569 97.7426 -112.17 9.1833 -2.02892 37.226 -1.23879 -0.720312 34.1482 0.479487 -12.0596 -0.227504 8.05996 -89.0714 10.75 -0.0247518 1.84857 -0.92224 0.0566124 1.84787 -23.4476 -0.579101 1.75573 -3.43494 -0.579109 1.75572 92.9035 -51.9155 -96.0235 25.7443 -18.9167 24.6475 -10.5397 -19.4232 -64.9256 -15.0789 -0.721419 -0.0487222 -99.5111 -53.3641 65.8933 -19.3793 0.125978 13.641 9.86568 0.18365 -77.7963 32.6238 3.22109 6.10526 5.52606 1.61006 -5.03852 13.1787 2.11268 -1.81 
92.1134 90.7726 84.7072 69.379 -53.2301 78.2915 -171.691 21.634 85.0748 -44.8479 21.1941 -2.69265 69.4826 12.6557 13.2029 43.5593 11.8368 2.51237 165.164 52.8505 100.653 -110.446 9.88936 -1.8925 41.7785 -1.6369 -1.04615 35.6935 0.398436 -13.4983 -0.629798 7.93543 -89.2519 11.0072 -0.907289 1.57515 -0.664443 -0.837114 1.61354 -23.197 -1.33872 1.22972 -3.18438 -1.33872 1.22971 93.4168 -52.5331 -95.1498 25.674 -20.4572 29.4202 -12.9607 -20.7773 -66.3532 -12.8454 -0.578782 -0.804977 -97.9001 -51.266 67.478 -20.0156 -0.0139476 10.3808 13.1308 -0.733481 -84.8997 33.1573 3.08639 5.52341 5.24819 2.09129 -6.43114 12.4911 3.03268 -0.240196 
96.8177 92.7573 91.0139 70.4855 -50.8737 81.1735 -172.773 14.8829 88.0534 -39.3555 25.8214 -1.08845 63.7174 6.68801 11.0619 45.3679 13.4605 3.60436 163.93 56.4131 102.752 -103.34 7.98451 -1.21713 45.947 -1.21509 -0.690805 34.9238 0.423011 -10.7961 -0.965713 7.90702 -89.6522 11.068 -1.76088 0.8641 -0.602107 -1.72114 0.940758 -23.1463 -1.93915 0.294772 -3.13362 -1.93915 0.294771 93.8453 -52.5612 -94.5037 25.7675 -21.9052 34.2695 -12.8111 -20.6065 -67.825 -12.0995 -0.420163 -2.0864 -96.7516 -50.1903 68.7943 -19.9125 1.1453 8.13769 15.0374 -3.53134 -90.9857 33.713 3.31266 6.05221 5.52599 2.57885 -6.38691 11.1726 3.6557 0.768442 
101.449 95.0367 97.8198 72.0138 -50.2119 82.9164 -172.843 6.26058 92.8333 -30.3465 27.2454 -0.0409076 53.0736 -3.15731 0.944434 47.3923 16.1014 9.26541 166.859 57.3729 101.583 -92.9922 3.56193 -0.642385 49.3818 -0.0734506 0.176337 35.7529 0.387348 -10.8822 -1.11613 7.89738 -89.8615 11.084 -2.15734 0.484718 -0.585351 -2.13391 0.579226 -23.1346 -2.20323 -0.18638 -3.122 -2.20323 -0.186379 93.9795 -52.2496 -94.35 26.9476 -21.8227 39.1469 -12.5811 -19.7814 -68.1294 -12.2586 -0.366901 -2.54261 -95.9446 -49.1138 69.6404 -20.262 2.06919 7.97789 17.6267 -4.58325 -99.5186 34.5384 3.50893 6.40539 5.05525 2.93468 -6.57437 10.3609 4.18077 2.17397 
